<?xml version="1.0" standalone="no"?>
<!DOCTYPE svg PUBLIC "-//W3C//DTD SVG 20010904//EN"
 "http://www.w3.org/TR/2001/REC-SVG-20010904/DTD/svg10.dtd">
<svg version="1.0" xmlns="http://www.w3.org/2000/svg"
 width="567.000000pt" height="567.000000pt" viewBox="0 0 567.000000 567.000000"
 preserveAspectRatio="xMidYMid meet">
<metadata>
Created by potrace 1.16, written by Peter Selinger 2001-2019
</metadata>
<g transform="translate(0.000000,567.000000) scale(0.100000,-0.100000)"
fill="#000000" stroke="none">
<path d="M1035 5388 c-149 -20 -320 -96 -443 -198 -148 -124 -246 -282 -299
-485 -17 -66 -18 -157 -19 -1755 0 -1175 3 -1687 10 -1692 8 -5 7 -8 -1 -8
-18 0 -9 -181 14 -285 4 -16 7 -34 7 -40 1 -6 101 -10 276 -11 287 -1 317 2
363 44 48 43 64 114 40 173 -16 41 -64 89 -89 89 -10 0 -12 5 -8 12 16 26 29
136 29 235 0 76 2 99 11 92 6 -5 29 -8 50 -6 22 2 47 0 57 -5 9 -5 17 -5 17
-1 0 4 55 8 123 8 111 1 125 3 153 23 17 13 39 37 49 54 24 42 24 125 -1 167
-22 37 -71 71 -103 71 -11 0 -21 5 -21 11 0 7 -5 8 -13 2 -9 -7 -259 -10 -312
-4 -12 1 -12 540 -1 656 14 133 71 375 88 375 5 0 6 4 3 10 -11 18 130 324
171 371 8 8 14 19 14 23 0 4 5 12 10 19 6 7 24 30 40 52 17 22 40 53 53 70 47
63 215 229 286 283 103 77 250 174 271 177 3 1 43 19 90 41 78 37 257 100 305
107 11 1 25 5 30 9 6 3 35 9 65 13 30 4 57 8 60 10 22 13 258 22 383 14 34 -2
57 0 57 6 0 6 3 5 8 -1 4 -6 14 -11 22 -12 30 -1 103 -13 111 -18 5 -3 9 1 9
8 0 9 2 10 8 1 4 -6 21 -14 37 -17 52 -9 182 -46 235 -67 19 -7 38 -12 43 -11
4 1 7 -2 7 -7 0 -4 20 -14 45 -21 25 -7 45 -17 45 -21 0 -5 7 -9 16 -9 9 0 28
-9 44 -20 15 -11 39 -24 52 -29 41 -16 138 -81 138 -93 0 -6 3 -8 6 -5 9 8 77
-39 130 -90 13 -13 25 -23 27 -23 9 0 92 -85 89 -92 -1 -4 3 -8 9 -8 19 0 196
-214 192 -231 -2 -5 1 -9 6 -9 6 0 16 -11 23 -24 7 -14 28 -49 46 -80 18 -31
30 -61 26 -67 -4 -8 -3 -9 4 -5 10 6 26 -21 67 -119 7 -16 20 -48 29 -70 10
-23 19 -50 21 -60 2 -11 4 -20 5 -20 2 0 2 0 30 -110 28 -107 34 -138 47 -254
15 -134 3 -394 -22 -501 -4 -14 -9 -38 -12 -55 -8 -44 -8 -45 -29 -110 -10
-33 -19 -64 -20 -70 0 -5 -6 -21 -11 -35 -6 -14 -20 -47 -31 -75 -112 -276
-324 -553 -557 -725 -33 -25 -61 -48 -63 -52 -2 -5 -7 -8 -12 -8 -4 0 -31 -16
-60 -35 -77 -52 -271 -147 -287 -141 -8 3 -12 2 -9 -2 3 -5 -27 -19 -67 -31
-40 -13 -83 -27 -97 -31 -24 -8 -143 -34 -205 -45 -78 -13 -199 -19 -407 -19
-137 0 -224 -4 -221 -10 4 -5 0 -6 -8 0 -20 13 -141 13 -158 0 -11 -8 -13 -8
-8 0 8 14 -115 13 -125 -1 -5 -7 -8 -7 -8 0 0 14 -770 14 -770 0 0 -7 -3 -7
-8 0 -4 7 -136 10 -379 10 -205 0 -373 -1 -373 -2 0 -2 21 -25 48 -51 134
-137 308 -226 497 -255 62 -10 474 -12 1825 -12 960 1 1765 5 1790 9 135 22
290 86 390 162 101 77 118 93 181 177 98 131 160 281 177 437 10 85 9 3421 -1
3437 -4 6 -3 14 2 17 9 6 6 59 -10 151 -20 120 -64 228 -134 334 -58 89 -150
185 -166 176 -7 -5 -10 -4 -6 2 18 29 -175 139 -320 182 -106 32 -333 51 -333
28 0 -8 -3 -9 -8 -1 -5 7 -145 10 -437 10 l-430 -1 0 -200 c0 -199 0 -200 28
-255 64 -125 162 -179 328 -183 55 -1 99 -5 99 -10 0 -4 4 -6 9 -2 5 3 13 0
16 -6 4 -5 13 -8 21 -5 8 3 13 2 11 -2 -1 -4 11 -23 26 -43 32 -42 40 -97 21
-146 -7 -18 -11 -33 -9 -33 2 0 -6 -10 -19 -23 -40 -40 -79 -50 -209 -51 -70
0 -125 -5 -129 -11 -5 -6 -8 -6 -8 2 0 6 -13 11 -30 11 -18 -1 -27 -5 -23 -12
4 -6 -1 -5 -10 3 -9 7 -17 10 -17 6 0 -4 -6 -2 -14 4 -8 7 -17 8 -20 3 -7 -11
-126 -10 -143 1 -6 4 -15 3 -18 -3 -8 -13 -47 -9 -57 5 -5 6 -8 6 -8 -1 0 -7
-28 -10 -80 -9 -53 2 -80 -1 -80 -9 0 -8 -3 -8 -8 0 -4 6 -20 10 -37 10 -16 0
-33 -4 -37 -10 -5 -7 -8 -7 -8 1 0 8 -9 11 -22 9 -13 -2 -31 0 -40 5 -10 6
-19 5 -23 -1 -6 -10 -45 -7 -64 4 -5 4 -12 3 -15 -2 -5 -8 -458 -7 -516 2 -88
13 -110 18 -175 38 -63 19 -145 57 -167 76 -10 8 -18 12 -18 8 0 -7 -73 43
-130 89 -57 46 -142 141 -183 203 -49 74 -111 192 -101 192 4 0 2 6 -3 13 -21
25 -54 180 -56 257 l-2 80 -265 -2 c-146 -1 -292 -5 -325 -10z m3695 -438 c0
-5 -5 -10 -11 -10 -5 0 -7 5 -4 10 3 6 8 10 11 10 2 0 4 -4 4 -10z m-203 -45
c0 -8 -4 -12 -9 -9 -5 3 -6 10 -3 15 9 13 12 11 12 -6z m-587 -69 c0 -2 -8
-10 -17 -17 -16 -13 -17 -12 -4 4 13 16 21 21 21 13z m1227 -161 c0 -8 -4 -12
-9 -9 -5 3 -6 10 -3 15 9 13 12 11 12 -6z m78 6 c3 -5 2 -12 -3 -15 -5 -3 -9
1 -9 9 0 17 3 19 12 6z m80 -11 c3 -5 1 -10 -4 -10 -6 0 -11 5 -11 10 0 6 2
10 4 10 3 0 8 -4 11 -10z m-155 -80 c0 -5 -5 -10 -11 -10 -5 0 -7 5 -4 10 3 6
8 10 11 10 2 0 4 -4 4 -10z m-287 -275 c-3 -9 -8 -14 -10 -11 -3 3 -2 9 2 15
9 16 15 13 8 -4z m-833 -285 c0 -5 -5 -10 -11 -10 -5 0 -7 5 -4 10 3 6 8 10
11 10 2 0 4 -4 4 -10z m80 6 c0 -3 -4 -8 -10 -11 -5 -3 -10 -1 -10 4 0 6 5 11
10 11 6 0 10 -2 10 -4z m-80 -86 c0 -5 -5 -10 -11 -10 -5 0 -7 5 -4 10 3 6 8
10 11 10 2 0 4 -4 4 -10z m640 4 c0 -8 -19 -13 -24 -6 -3 5 1 9 9 9 8 0 15 -2
15 -3z m-806 -82 c3 -5 -1 -9 -9 -9 -8 0 -12 4 -9 9 3 4 7 8 9 8 2 0 6 -4 9
-8z m566 -2 c0 -5 -2 -10 -4 -10 -3 0 -8 5 -11 10 -3 6 -1 10 4 10 6 0 11 -4
11 -10z m245 -360 c-3 -5 -12 -10 -18 -10 -7 0 -6 4 3 10 19 12 23 12 15 0z"/>
<path d="M1604 1882 c4 -7 1 -12 -10 -12 -32 0 -83 -41 -103 -83 -24 -50 -22
-111 5 -153 48 -75 60 -78 291 -80 184 -1 207 0 243 18 54 27 82 76 83 142 1
62 -20 102 -71 136 -34 24 -41 25 -227 26 -105 0 -197 4 -205 9 -9 5 -11 4 -6
-3z"/>
<path d="M2309 1870 c-14 -4 -37 -15 -52 -24 -30 -21 -68 -92 -60 -114 5 -11
3 -13 -7 -7 -9 5 -11 4 -6 -3 4 -7 9 -20 11 -29 11 -56 42 -100 85 -123 15 -8
66 -14 132 -16 59 -1 112 -5 118 -9 5 -3 10 -3 10 2 0 4 39 8 86 7 66 0 95 4
125 19 39 19 79 70 79 101 0 11 5 14 12 10 7 -5 8 -3 3 6 -4 7 -9 28 -11 46
-4 49 -29 89 -71 115 -36 23 -47 24 -233 25 -107 0 -207 -3 -221 -6z"/>
<path d="M3839 1423 c-13 -16 -12 -17 4 -4 16 13 21 21 13 21 -2 0 -10 -8 -17
-17z"/>
<path d="M1437 1243 c-4 -3 -58 -7 -120 -8 -123 -1 -147 -6 -184 -39 -111 -95
-53 -265 95 -280 22 -2 45 -7 51 -10 6 -4 11 -4 11 1 0 4 136 7 303 7 319 -1
345 2 393 47 11 10 24 16 28 12 4 -4 4 0 1 9 -4 9 -2 19 4 23 6 3 11 15 11 26
0 10 6 19 13 19 8 0 8 3 2 8 -6 4 -10 14 -10 22 2 22 -23 81 -43 104 -41 46
-76 52 -314 51 -123 0 -226 3 -229 8 -3 4 -8 4 -12 0z"/>
</g>
</svg>
